
<svg xmlns="http://www.w3.org/2000/svg" viewBox="0 0 24 24" fill="#339933">
  <path d="M12 0C5.373 0 0 5.373 0 12c0 6.627 5.373 12 12 12 6.627 0 12-5.373 12-12C24 5.373 18.627 0 12 0zm.553 19.478c-.32.178-.692.178-1.011 0l-2.631-1.556c-.28-.155-.151-.283 0-.344.408-.136.487-.163.917-.417.043-.026.099-.013.142.013l2.019 1.195c.053.026.107.026.16 0l7.876-4.547a.16.16 0 0 0 .08-.136V5.311a.16.16 0 0 0-.08-.138l-7.876-4.547a.16.16 0 0 0-.16 0L4.113 5.175a.16.16 0 0 0-.08.138v9.097c0 .058.03.11.08.136l2.158 1.244c.902.452 1.455-.08 1.455-.614V5.923c0-.098.08-.178.18-.178h.999c.097 0 .177.8.177.178v8.253c0 1.205-.655 1.895-1.797 1.895-.35 0-.627 0-1.395-.379l-2.064-1.19A1.596 1.596 0 0 1 3 12.814V3.718c0-.573.306-1.105.8-1.39L11.675.123a1.65 1.65 0 0 1 1.534 0l7.876 4.548a1.594 1.594 0 0 1 .8 1.39v9.097c0 .574-.306 1.105-.8 1.39l-7.876 4.548z"/>
</svg>
