
<svg xmlns="http://www.w3.org/2000/svg" viewBox="0 0 24 24">
  <defs>
    <linearGradient id="a" x1="70.252" x2="170.659" y1="1237.476" y2="1151.089" gradientTransform="matrix(.0983 0 0 -.0983 -4.648 123.068)" gradientUnits="userSpaceOnUse">
      <stop offset="0" stop-color="#5A9FD4"/>
      <stop offset="1" stop-color="#306998"/>
    </linearGradient>
    <linearGradient id="b" x1="209.474" x2="173.62" y1="1098.811" y2="1149.537" gradientTransform="matrix(.0983 0 0 -.0983 -4.648 123.068)" gradientUnits="userSpaceOnUse">
      <stop offset="0" stop-color="#FFD43B"/>
      <stop offset="1" stop-color="#FFE873"/>
    </linearGradient>
  </defs>
  <path fill="url(#a)" d="M11.91 1.022c-5.246 0-4.921 2.274-4.921 2.274l.006 2.356h5.009v.708H4.928s-3.345-.383-3.345 4.898c0 5.282 2.923 5.095 2.923 5.095h1.742v-2.452s-.094-2.922 2.878-2.922h4.957s2.785.045 2.785-2.692V3.779s.42-2.757-4.958-2.757zm-2.756 1.592a.93.93 0 0 1 .932.929.93.93 0 0 1-.932.929.93.93 0 0 1-.929-.929.93.93 0 0 1 .929-.929z"/>
  <path fill="url(#b)" d="M12.037 22.977c5.246 0 4.92-2.273 4.92-2.273l-.005-2.357h-5.009v-.708h7.076s3.345.383 3.345-4.897c0-5.282-2.922-5.096-2.922-5.096h-1.742v2.453s.093 2.921-2.878 2.921h-4.957s-2.785-.045-2.785 2.692v4.53s-.42 2.757 4.957 2.757v-.012zm2.757-1.591a.93.93 0 0 1-.932-.929.93.93 0 0 1 .932-.93.93.93 0 0 1 .929.93.93.93 0 0 1-.929.929z"/>
</svg>
